<?xml version="1.0" encoding="UTF-8" standalone="no"?>
<!-- Created with Inkscape (http://www.inkscape.org/) -->

<svg
   xmlns:dc="http://purl.org/dc/elements/1.1/"
   xmlns:cc="http://creativecommons.org/ns#"
   xmlns:rdf="http://www.w3.org/1999/02/22-rdf-syntax-ns#"
   xmlns:svg="http://www.w3.org/2000/svg"
   xmlns="http://www.w3.org/2000/svg"
   xmlns:sodipodi="http://sodipodi.sourceforge.net/DTD/sodipodi-0.dtd"
   xmlns:inkscape="http://www.inkscape.org/namespaces/inkscape"
   width="600"
   height="600"
   id="svg5310"
   version="1.1"
   inkscape:version="0.48.4 r9939"
   sodipodi:docname="boton-rojo.svg">
  <sodipodi:namedview
     id="base"
     pagecolor="#ffffff"
     bordercolor="#666666"
     borderopacity="1.0"
     inkscape:pageopacity="0.0"
     inkscape:pageshadow="2"
     inkscape:zoom="0.98994949"
     inkscape:cx="89.598562"
     inkscape:cy="248.53061"
     inkscape:document-units="px"
     inkscape:current-layer="layer1"
     showgrid="false"
     inkscape:window-width="1856"
     inkscape:window-height="1056"
     inkscape:window-x="64"
     inkscape:window-y="24"
     inkscape:window-maximized="1" />
  <defs
     id="defs5312">
    <clipPath
       id="clipPath">
      <path
         sodipodi:type="arc"
         style="fill:#e60000;fill-opacity:1;stroke:#ea0000;stroke-width:1;stroke-miterlimit:4;stroke-opacity:1;stroke-dasharray:none"
         id="path5324"
         sodipodi:cx="345.47217"
         sodipodi:cy="288.87302"
         sodipodi:rx="262.63968"
         sodipodi:ry="262.63965"
         d="m 608.11185,288.87302 a 262.63968,262.63965 0 1 1 -525.279361,0 262.63968,262.63965 0 1 1 525.279361,0 z"
         transform="translate(-49.497474,465.49416)" />
    </clipPath>
    <filter
       id="filter"
       height="2.0"
       width="2.0"
       x="-0.5"
       y="-0.5">
      <feGaussianBlur
         stdDeviation="5.0"
         id="feGaussianBlur5414" />
    </filter>
  </defs>
  <metadata
     id="metadata5315">
    <rdf:RDF>
      <cc:Work
         rdf:about="">
        <dc:format>image/svg+xml</dc:format>
        <dc:type
           rdf:resource="http://purl.org/dc/dcmitype/StillImage" />
        <dc:title></dc:title>
      </cc:Work>
    </rdf:RDF>
  </metadata>
  <g
     inkscape:label="Capa 1"
     inkscape:groupmode="layer"
     id="layer1"
     transform="translate(0,-452.36218)">
    <path
       sodipodi:type="arc"
       style="fill:#e60000;fill-opacity:1;stroke:#ea0000;stroke-width:1;stroke-miterlimit:4;stroke-opacity:1;stroke-dasharray:none"
       id="path5419"
       sodipodi:cx="345.47217"
       sodipodi:cy="288.87302"
       sodipodi:rx="262.63968"
       sodipodi:ry="262.63965"
       d="m 608.11185,288.87302 a 262.63968,262.63965 0 1 1 -525.279361,0 262.63968,262.63965 0 1 1 525.279361,0 z"
       transform="translate(-49.497474,465.49416)" />
    <g
       clip-path="url(#clipPath)"
       id="g5421">
      <g
         id="g5423">
        <path
           sodipodi:type="arc"
           style="fill:none;stroke:#ffffff;stroke-opacity:1;stroke-width:10;filter:url(#filter);"
           id="path5425"
           sodipodi:cx="345.47217"
           sodipodi:cy="288.87302"
           sodipodi:rx="262.63968"
           sodipodi:ry="262.63965"
           d="m 608.11185,288.87302 c 0,145.05187 -117.58779,262.63964 -262.63968,262.63964 -145.05189,0 -262.639681,-117.58777 -262.639681,-262.63964 0,-145.05188 117.587791,-262.639652 262.639681,-262.639652 145.05189,0 262.63968,117.587772 262.63968,262.639652 z"
           transform="translate(-49.497474,465.49416)" />
        <path
           sodipodi:type="arc"
           style="fill:none;stroke:#000000;stroke-opacity:1;stroke-width:10;filter:url(#filter);"
           id="path5427"
           sodipodi:cx="345.47217"
           sodipodi:cy="288.87302"
           sodipodi:rx="262.63968"
           sodipodi:ry="262.63965"
           d="m 608.11185,288.87302 c 0,145.05187 -117.58779,262.63964 -262.63968,262.63964 -145.05189,0 -262.639681,-117.58777 -262.639681,-262.63964 0,-145.05188 117.587791,-262.639652 262.639681,-262.639652 145.05189,0 262.63968,117.587772 262.63968,262.639652 z"
           transform="translate(-49.497474,465.49416)" />
      </g>
    </g>
    <path
       inkscape:connector-curvature="0"
       id="path5040"
       style="fill:#565248"
       d="m 351.59952,685.84686 c 0,0 2.9343,-5.61984 2.9343,-6.26891 0,-0.64829 2.30504,-3.45782 3.56205,-4.10689 1.25778,-0.64828 5.44834,-3.02589 6.49636,-3.24224 1.04802,-0.21559 16.97427,-11.02332 16.97427,-11.02332 l 4.61008,-4.97153 c 0,0 -0.20977,-11.67239 -0.41876,-12.32068 -0.20976,-0.64907 2.51404,-7.99742 3.77105,-9.0792 1.25702,-1.08024 3.56205,-2.80953 5.02959,-3.24225 1.46752,-0.43194 4.61082,0 5.44908,0.64908 0.83751,0.64829 7.96313,7.56549 8.80064,8.86207 0.83827,1.29659 2.0968,4.32325 1.88628,5.1879 -0.21051,0.86464 0.20975,2.37758 0.62851,3.24225 0.41875,0.86463 0.83827,1.29736 0.41875,3.02588 -0.41875,1.72929 1.04878,1.94566 -0.41875,3.89053 -1.46753,1.94486 -1.25702,1.29657 -1.25702,2.8103 0,1.51294 -3.5628,5.40348 0,1.51294 3.56205,-3.89053 5.65809,-6.26811 6.28661,-7.34914 0.6285,-1.08022 2.51402,-4.10688 3.14329,-4.97152 0.62851,-0.86465 2.51404,-16.64393 2.72455,-17.72416 0.209,-1.08101 0.8375,-11.67237 1.04802,-12.32066 0.20899,-0.6483 -0.41951,-17.72494 -0.41951,-17.72494 0,0 -1.67653,-3.89053 -2.09604,-4.75519 -0.41951,-0.86464 -0.83751,-7.13277 -0.83751,-7.13277 0,0 -1.25701,-4.5396 -0.41951,-4.75596 0.83751,-0.21558 1.46753,-4.10612 1.25702,-4.75518 -0.209,-0.6483 -0.62851,-6.70084 -0.62851,-6.70084 0,0 1.04802,-0.86465 1.88553,-0.64829 0.83826,0.21556 1.67653,4.53881 1.46752,5.40348 -0.20899,0.86464 1.46754,5.61981 1.46754,5.61981 0,0 0.83826,-1.29735 1.67576,-1.7293 0.83827,-0.43191 2.5148,-1.29658 2.72531,-0.21557 0.209,1.08101 1.25701,2.16202 1.25701,2.16202 0,0 0.62852,-0.21636 1.46678,0 0.83826,0.21557 2.9343,0.64829 2.9343,0.64829 0,0 3.1433,-0.64829 2.51403,0.64829 -0.6285,1.29736 -1.25702,1.51373 -1.88552,2.59394 -0.62851,1.08102 -1.46678,3.24226 -1.46678,4.53962 0,1.29658 0.8375,4.53883 0.41875,5.61983 -0.41875,1.08101 -0.83826,3.02667 -0.6285,5.1879 0.20975,2.16123 0.6285,5.40347 0.6285,6.70084 0,1.29736 0.20976,1.94566 0.20976,3.4586 0,1.51295 0.83751,23.99305 0.83751,25.506 0,1.51373 -1.04802,9.29478 -1.04802,10.15944 0,0.86465 -0.83826,6.70082 -0.62851,8.21377 0.20975,1.51294 -0.20975,5.1879 -0.20975,7.13278 0,1.94566 -2.30504,13.83362 -2.30504,13.83362 l -0.83751,6.91642 c 0,0 3.35306,30.26195 3.14255,31.55854 -0.20824,1.29735 0.62927,9.94229 0.83826,11.45603 0.20976,1.51371 2.51479,8.6457 2.72455,9.51114 0.20899,0.86464 2.93431,6.91641 2.93431,6.91641 0,0 -1.8863,2.8103 -2.3058,2.8103 -0.41952,0 3.56281,37.61033 3.56281,37.61033 0,0 0.20899,12.10508 0.20899,12.75338 0,0.64908 2.09605,17.72415 1.88628,18.37322 -0.20975,0.64829 -6.49635,7.13278 -6.49635,7.13278 0,0 -2.93355,9.51115 -2.93355,10.80773 0,1.29737 -2.09679,11.24044 -2.09679,11.24044 0,0 3.35381,9.94309 4.61083,11.24045 1.25701,1.29737 0.41951,-0.21557 1.25701,1.29659 0.83827,1.51372 3.14331,9.7275 2.09605,10.15943 -1.04726,0.43272 -10.47791,2.16201 -10.47791,2.16201 l -9.42991,-8.21377 c 0,0 -2.09605,-7.56628 -2.51479,-7.99742 -0.41875,-0.4335 0.41952,-2.59396 1.04878,-4.10767 0.62851,-1.51295 1.67576,-5.8362 1.88552,-6.70085 0.209,-0.86388 0.62851,-5.61983 0,-7.99743 -0.62851,-2.37759 -1.67729,-9.72673 -1.67729,-12.10431 0,-2.3776 -1.67576,-8.42936 -1.25701,-9.94308 0.41952,-1.51372 -3.56281,-16.64392 -3.77105,-18.58958 -0.20976,-1.94489 -2.51479,-14.26555 -2.0968,-15.13097 0.42027,-0.86466 -1.12525,-7.0703 -1.46678,-6.48448 -1.25701,2.16201 -3.56205,27.23606 -3.56205,27.88436 0,0.64828 0,10.37501 0.41876,11.45524 0.41951,1.0818 0.41951,6.9172 0.41951,6.9172 0,0 -3.77105,3.45937 -4.19132,3.02587 -0.41875,-0.43192 0.20976,21.18354 0.20976,21.83183 0,0.64829 1.04802,11.24045 1.25702,12.53703 0.20975,1.29659 1.25778,8.86208 1.25778,8.86208 0,0 -7.54513,1.94565 -8.5924,2.37838 -1.04802,0.4327 -11.73494,2.16202 -11.73494,2.16202 0,0 -6.49635,-2.16202 -5.86785,-2.37761 0.62852,-0.21636 0.83751,-6.26813 3.56281,-6.48526 2.72379,-0.21558 3.14255,-4.97155 3.14255,-4.97155 l 3.56205,-5.61983 c 0,0 2.09604,-2.37759 2.09604,-3.02587 0,-0.6483 0.41951,-2.16202 0.20976,-3.45862 -0.20976,-1.29658 -0.62851,-6.26811 -1.25702,-8.21455 -0.62851,-1.94488 -3.56281,-11.24044 -3.77181,-12.53703 -0.20975,-1.29659 -2.72455,-5.8362 -2.30504,-7.13278 0.41876,-1.29736 -0.41951,-18.37322 -0.20975,-19.45345 0.20975,-1.08101 -2.30504,-12.75338 -2.30504,-12.75338 0,0 -3.1433,-7.13356 -2.93354,-7.99821 0.20899,-0.86465 -0.41951,-14.48268 -0.41951,-14.48268 l 1.04802,-6.48449 c 0,0 0.41875,-27.45165 0.62851,-28.74903 0.20899,-1.29658 -0.62851,-13.61801 -0.62851,-14.9146 0,-1.29737 -0.83827,-7.56548 -1.46753,-8.64651 -0.62927,-1.08022 -2.09604,-4.75518 -2.09604,-4.75518 0,0 -12.15445,-1.51372 -12.36344,-2.16201 -0.20976,-0.6483 -9.22091,-3.89054 -10.05917,-4.75519 -0.83751,-0.86464 -3.14254,-6.05256 -2.93354,-5.18789 0.209,0.86464 0.21051,0.86543 0.21051,0.86543 z" />
    <path
       inkscape:connector-curvature="0"
       id="path5042"
       style="fill:#aaccee"
       d="m 390.22629,655.79891 c 0,0 -3.91114,4.32404 -4.33065,4.89968 -0.41951,0.57644 -2.93355,3.74683 -2.65412,4.32325 0.27941,0.57642 1.3971,0.57565 3.21296,-0.57642 1.81586,-1.15287 6.28659,-3.89055 6.70534,-4.46698 0.41876,-0.57643 -2.93353,-4.17953 -2.93353,-4.17953 z" />
    <path
       inkscape:connector-curvature="0"
       id="path5044"
       style="fill:#aaccee"
       d="m 398.32874,650.61257 c -0.67848,-0.22417 0.27866,6.05255 0.27866,6.05255 0,0 6.70688,-3.74681 -0.27866,-6.05255 z" />
    <g
       id="g5089"
       transform="matrix(0.64988506,0,0,0.7189129,109.00038,480.29007)">
      <path
         inkscape:connector-curvature="0"
         id="path5020"
         style="fill:#816647"
         d="m 93.054,243.48 13.007,-9.132 8.026,-4.151 -0.554,-11.623 -2.214,-7.195 -0.277,-9.409 c 0,0 1.384,-7.748 1.661,-8.579 0.277,-0.83 4.428,-5.812 5.812,-6.365 1.383,-0.554 4.427,-2.214 5.535,-2.214 1.107,0 7.195,0.276 8.025,0.553 0.83,0.276 7.195,5.535 7.195,5.535 0,0 3.598,4.151 3.874,6.088 0.277,1.937 0.277,8.579 0.277,8.579 0,0 -0.277,1.383 -0.277,3.044 0,1.66 -1.937,3.598 -3.044,4.428 -1.107,0.831 -3.598,2.491 -3.044,3.321 0.553,0.83 3.044,2.491 2.214,4.428 -0.831,1.938 -1.384,3.044 0.83,3.875 2.214,0.83 9.409,4.151 11.346,4.705 1.937,0.553 5.258,-0.277 6.088,3.044 0.831,3.321 8.025,16.881 8.025,17.711 v 10.516 10.793 l 0.83,4.981 c 0,0 1.107,7.749 0,8.856 -1.107,1.107 -3.598,4.705 -3.874,4.428 -0.277,-0.277 0.554,26.013 0,27.397 -0.554,1.384 -3.598,4.981 -3.598,4.981 0,0 0.83,6.365 0.554,7.749 -0.277,1.384 1.106,21.863 1.106,21.863 0,0 -1.106,12.176 -1.66,13.56 -0.553,1.383 -4.428,29.334 -4.705,31.825 -0.277,2.49 -0.554,11.899 -0.831,13.283 -0.276,1.384 -1.66,36.253 -1.66,36.253 0,0 -0.831,10.517 -0.553,11.899 0.276,1.384 -1.661,5.535 -2.768,6.088 -1.107,0.555 -2.768,0.277 -2.214,3.321 0.554,3.044 1.384,4.151 3.044,9.133 1.66,4.98 3.044,8.024 0.831,8.024 -2.214,0 -10.793,1.385 -13.561,0.277 -2.768,-1.108 -5.258,0 -7.195,-2.214 -1.937,-2.214 -3.044,-5.534 -3.321,-4.704 -0.277,0.83 2.214,2.49 -1.66,1.384 -3.875,-1.107 -3.875,-1.107 -4.428,-3.045 -0.553,-1.938 -1.661,-3.044 1.661,-6.088 3.321,-3.044 4.428,-4.981 4.428,-4.981 0,0 -1.107,-6.918 -1.107,-8.303 0,-1.383 0.554,-4.427 0,-5.534 -0.553,-1.106 -9.686,-28.78 -11.623,-30.165 -1.937,-1.384 -5.258,-10.239 -5.812,-12.453 -0.554,-2.214 -8.302,-47.876 -8.025,-48.983 0.276,-1.107 3.321,-21.032 2.214,-20.755 -1.107,0.276 -1.661,-20.479 -1.384,-21.863 0.277,-1.384 2.491,-16.051 2.214,-16.881 -0.276,-0.83 -0.276,-3.598 -1.661,-4.428 -1.383,-0.831 -2.767,-1.937 -6.088,-4.428 -3.321,-2.491 -3.321,-7.195 -1.937,-8.302 1.383,-1.106 6.365,-3.32 4.981,-4.428 -1.383,-1.107 1.661,-2.768 0.277,-5.812 -1.384,-3.044 -3.321,-14.113 -3.875,-15.498 -0.553,-1.383 -0.553,-9.962 -0.553,-9.962 l -0.552,-4.427 z" />
      <path
         inkscape:connector-curvature="0"
         id="path5022"
         style="fill:#aaccee"
         d="m 110.28,260.31 c 0,0 4.613,-1.292 5.72,-1.477 1.107,-0.184 5.165,0.369 5.165,0.369 0,0 2.029,-8.855 -1.66,-9.409 -3.689,-0.553 -5.167,-0.738 -6.088,-0.553 -0.922,0.184 -2.768,2.398 -2.768,2.398 l -0.369,8.672 z" />
      <path
         inkscape:connector-curvature="0"
         id="path5024"
         style="fill:#aaccee"
         d="m 114.53,275.62 c 0.738,-0.185 3.321,0.738 3.321,0.738 0,0 0.737,3.505 0.553,5.719 -0.184,2.214 0.369,6.457 -0.553,6.088 -0.922,-0.368 -2.766,0.185 -2.951,-0.922 -0.185,-1.107 -0.37,-11.623 -0.37,-11.623 z" />
      <g
         id="g5048"
         style="fill:#aaccee">
        <path
           inkscape:connector-curvature="0"
           id="path5050"
           style="fill:#aaccee"
           d="m -57.051,542.32 -1.897,-0.633 c 9.8,-29.399 73.65,-78.232 148.52,-113.59 29.451,-13.908 43.037,-41.549 40.378,-82.158 -1.992,-30.422 -12.868,-57.045 -12.978,-57.311 l 1.849,-0.764 c 0.111,0.269 11.112,27.196 13.125,57.944 2.679,40.924 -11.678,70.005 -41.52,84.097 -74.431,35.149 -137.83,83.476 -147.48,112.41 z" />
      </g>
    </g>
    <g
       id="g5082"
       transform="matrix(0.78695972,0,0,0.80291567,86.520083,465.09045)">
      <path
         inkscape:connector-curvature="0"
         id="path5026"
         style="fill:#816647"
         d="m 213.67,201.02 c -1.107,1.107 -2.214,6.918 -2.214,6.918 0,0 1.384,14.391 1.384,15.221 0,0.83 -0.83,5.535 -0.83,5.535 0,0 -0.83,17.988 3.874,18.542 4.705,0.553 7.472,0.553 8.579,1.107 1.107,0.554 1.938,-2.213 2.214,-1.107 0.277,1.107 2.768,8.856 2.768,9.686 0,0.83 2.491,7.195 1.937,9.132 -0.554,1.937 -2.491,22.693 -2.767,25.183 -0.277,2.491 -3.321,16.604 -3.321,16.604 0,0 -1.107,7.472 -0.553,8.579 0.553,1.107 -0.83,15.774 -1.107,16.604 -0.277,0.83 -3.598,26.567 -4.151,27.397 -0.553,0.83 -4.705,12.176 -4.705,12.176 l -1.106,22.416 0.276,12.177 c 0,0 -0.276,7.748 0.554,8.578 0.83,0.831 1.937,5.535 1.937,5.535 0,0 2.214,9.132 3.044,9.962 0.831,0.83 4.705,6.088 5.258,7.195 0.553,1.106 12.453,17.711 12.177,18.541 -0.277,0.831 1.106,13.008 1.106,13.008 l 1.384,6.918 -1.661,8.025 c 0,0 -1.661,10.239 -0.83,10.793 0.83,0.553 5.811,9.133 7.472,9.409 1.661,0.276 5.535,0 6.642,-1.384 1.107,-1.384 4.151,-6.918 4.151,-8.579 0,-1.66 2.49,-4.981 2.214,-8.025 -0.277,-3.044 -1.384,-4.428 -0.83,-5.535 0.553,-1.106 4.704,-8.855 5.258,-9.686 0.553,-0.83 2.491,-9.409 2.214,-11.623 -0.276,-2.214 -5.258,-10.517 -5.258,-10.517 0,0 -9.41,-22.692 -9.686,-23.522 -0.277,-0.83 -1.937,-7.472 -1.661,-8.579 0.277,-1.106 1.384,-7.195 2.214,-8.302 0.83,-1.106 2.214,-21.309 2.214,-22.969 0,-1.661 4.705,-13.007 4.705,-14.114 0,-1.106 3.044,-11.623 3.874,-12.729 0.83,-1.106 0.83,-1.107 0.83,-1.107 0,0 3.044,-6.918 3.044,-6.088 0,0.83 7.749,25.46 7.749,25.46 l 1.661,17.435 1.384,24.077 c 0,0 0.553,8.025 0,9.409 -0.553,1.383 -6.365,33.209 -6.365,33.209 l -2.49,9.962 -2.491,10.239 c 0,0 -0.831,5.812 -1.107,8.025 -0.277,2.214 -0.277,9.687 -0.277,11.623 0,1.938 -2.214,8.025 -1.107,9.963 1.107,1.937 1.938,3.044 3.044,4.151 1.107,1.106 3.321,4.705 2.491,5.258 -0.831,0.554 0,1.937 1.107,3.598 1.107,1.66 2.214,1.384 2.767,2.214 0.554,0.83 1.938,2.49 4.428,2.214 2.491,-0.276 9.409,-0.554 10.793,0 1.383,0.554 6.918,-0.83 6.918,-0.83 0,0 2.49,-1.938 1.66,-4.704 -0.83,-2.769 -1.384,-6.089 -2.49,-6.643 -1.108,-0.553 -1.938,-2.214 -3.044,-3.597 -1.108,-1.385 -0.831,-3.599 -0.554,-4.429 0.276,-0.83 1.66,-3.32 1.384,-5.535 -0.277,-2.214 -1.661,-4.704 -1.661,-5.811 0,-1.107 1.661,-1.385 3.321,-3.321 1.66,-1.938 3.874,-6.642 4.151,-7.473 0.277,-0.83 1.661,-1.66 1.661,-7.194 0,-5.535 -0.831,-10.516 -0.554,-12.729 0.276,-2.215 2.768,-11.624 2.768,-13.284 0,-1.66 1.937,-10.24 1.937,-11.623 0,-1.384 5.535,-43.171 5.535,-43.171 l -0.276,-14.667 c 0,0 1.106,-24.63 0.83,-25.46 -0.276,-0.831 -1.66,-16.881 -1.66,-17.711 0,-0.83 -0.555,-14.391 -0.555,-14.391 l -1.66,-26.844 v -6.088 c 0,0 4.151,13.837 5.259,15.498 1.106,1.66 3.321,-1.384 4.151,-3.598 0.83,-2.214 3.32,-9.132 3.597,-12.453 0.277,-3.321 -0.83,-6.088 -1.937,-6.918 -1.107,-0.831 0.554,-3.044 2.49,-5.535 1.938,-2.491 6.365,-12.73 6.365,-12.73 0,0 -1.106,-6.365 -2.214,-7.195 -1.107,-0.83 -2.767,-3.044 -2.767,-5.258 v -7.472 l 2.214,-1.661 -4.152,-10.516 c 0,0 -1.106,-6.642 -0.553,-7.472 0.553,-0.83 -3.321,-26.567 -6.919,-27.951 -3.598,-1.383 -19.925,-6.918 -19.925,-6.918 0,0 -11.346,-3.044 -12.176,-3.044 -0.83,0 -3.321,-2.491 -3.321,-2.491 l 0.277,-12.73 1.937,-5.812 c 0,0 3.321,-2.491 3.044,-4.705 -0.277,-2.214 0,-9.132 -0.277,-10.239 -0.276,-1.107 -6.642,-17.988 -7.748,-18.818 -1.107,-0.83 -17.158,-7.472 -21.586,-5.258 -4.427,2.214 -8.579,4.428 -11.346,9.962 -2.767,5.535 -4.428,11.347 -4.428,14.667 0,3.321 -0.276,9.686 0.554,11.346 0.83,1.661 1.383,7.473 3.321,8.303 1.938,0.83 3.875,3.321 3.875,4.151 0,0.83 -3.875,6.365 -3.875,6.365 0,0 -3.597,7.472 -3.597,6.642 0,-0.831 -6.919,0.554 -10.24,1.106 -3.321,0.554 -6.088,2.491 -6.642,3.321 -0.556,0.832 -3.323,4.706 -3.323,4.706 z" />
      <path
         inkscape:connector-curvature="0"
         id="path5028"
         style="fill:#aaccee"
         d="m 249.46,178.79 c -0.369,-0.737 1.107,-6.826 1.107,-6.826 0,0 1.846,-1.846 3.137,-1.477 1.291,0.37 3.32,2.214 3.505,2.768 0.185,0.554 0.737,1.846 -0.554,2.399 -1.291,0.554 -5.165,2.399 -5.719,2.767 -0.553,0.369 -1.476,0.369 -1.476,0.369 z" />
      <path
         inkscape:connector-curvature="0"
         id="path5030"
         style="fill:#aaccee"
         d="m 258.5,164.22 c 0.554,0.369 2.214,6.642 2.214,6.642 l 3.689,-0.922 c 0,0 1.292,-3.506 0.185,-4.428 -1.107,-0.922 -6.088,-1.292 -6.088,-1.292 z" />
      <g
         id="g5052"
         style="fill:#aaccee"
         transform="matrix(0.67728334,0,0,0.93856154,85.327431,10.912269)">
        <path
           inkscape:connector-curvature="0"
           id="path5054"
           style="fill:#aaccee"
           d="m -48.248,619.66 -1.505,-1.316 c 10.652,-12.175 64.465,-29.155 121.44,-47.133 56.18,-17.728 114.27,-36.06 130.67,-49.972 32.315,-27.419 47.669,-53.448 58.674,-99.47 5.628,-23.535 -7.14,-41.296 -21.923,-61.863 -13.962,-19.423 -29.787,-41.438 -35.091,-73.743 -9.432,-57.453 30.524,-95.6 42.996,-105.92 2.068,-1.712 3.301,-2.593 3.352,-2.63 l 1.161,1.628 c -0.012,0.009 -1.231,0.881 -3.238,2.542 -12.264,10.151 -51.557,47.656 -42.297,104.06 5.228,31.842 20.907,53.655 34.741,72.9 15.07,20.965 28.085,39.071 22.245,63.495 -11.118,46.491 -26.642,72.799 -59.326,100.53 -16.704,14.173 -74.992,32.566 -131.36,50.354 -54.203,17.105 -110.25,34.791 -120.53,46.543 z" />
      </g>
    </g>
  </g>
</svg>
