<?xml version="1.0" encoding="UTF-8" standalone="no"?>
<!-- Created with Inkscape (http://www.inkscape.org/) -->

<svg
   xmlns:dc="http://purl.org/dc/elements/1.1/"
   xmlns:cc="http://creativecommons.org/ns#"
   xmlns:rdf="http://www.w3.org/1999/02/22-rdf-syntax-ns#"
   xmlns:svg="http://www.w3.org/2000/svg"
   xmlns="http://www.w3.org/2000/svg"
   xmlns:sodipodi="http://sodipodi.sourceforge.net/DTD/sodipodi-0.dtd"
   xmlns:inkscape="http://www.inkscape.org/namespaces/inkscape"
   width="600"
   height="600"
   id="svg5310"
   version="1.1"
   inkscape:version="0.48.4 r9939"
   sodipodi:docname="boton-rojo.svg">
  <sodipodi:namedview
     id="base"
     pagecolor="#ffffff"
     bordercolor="#666666"
     borderopacity="1.0"
     inkscape:pageopacity="0.0"
     inkscape:pageshadow="2"
     inkscape:zoom="0.98994949"
     inkscape:cx="89.598562"
     inkscape:cy="248.53061"
     inkscape:document-units="px"
     inkscape:current-layer="layer1"
     showgrid="false"
     inkscape:window-width="1856"
     inkscape:window-height="1056"
     inkscape:window-x="64"
     inkscape:window-y="24"
     inkscape:window-maximized="1" />
  <defs
     id="defs5312">
    <clipPath
       id="clipPath">
      <path
         sodipodi:type="arc"
         style="fill:#e60000;fill-opacity:1;stroke:#ea0000;stroke-width:1;stroke-miterlimit:4;stroke-opacity:1;stroke-dasharray:none"
         id="path5324"
         sodipodi:cx="345.47217"
         sodipodi:cy="288.87302"
         sodipodi:rx="262.63968"
         sodipodi:ry="262.63965"
         d="m 608.11185,288.87302 a 262.63968,262.63965 0 1 1 -525.279361,0 262.63968,262.63965 0 1 1 525.279361,0 z"
         transform="translate(-49.497474,465.49416)" />
    </clipPath>
    <filter
       id="filter"
       height="2.0"
       width="2.0"
       x="-0.5"
       y="-0.5">
      <feGaussianBlur
         stdDeviation="5.0"
         id="feGaussianBlur5414" />
    </filter>
  </defs>
  <metadata
     id="metadata5315">
    <rdf:RDF>
      <cc:Work
         rdf:about="">
        <dc:format>image/svg+xml</dc:format>
        <dc:type
           rdf:resource="http://purl.org/dc/dcmitype/StillImage" />
        <dc:title></dc:title>
      </cc:Work>
    </rdf:RDF>
  </metadata>
  <g
     inkscape:label="Capa 1"
     inkscape:groupmode="layer"
     id="layer1"
     transform="translate(0,-452.36218)">
    <path
       sodipodi:type="arc"
       style="fill:#e60000;fill-opacity:1;stroke:#ea0000;stroke-width:1;stroke-miterlimit:4;stroke-opacity:1;stroke-dasharray:none"
       id="path5419"
       sodipodi:cx="345.47217"
       sodipodi:cy="288.87302"
       sodipodi:rx="262.63968"
       sodipodi:ry="262.63965"
       d="m 608.11185,288.87302 c 0,145.05187 -117.58779,262.63964 -262.63968,262.63964 -145.05189,0 -262.639681,-117.58777 -262.639681,-262.63964 0,-145.05188 117.587791,-262.639652 262.639681,-262.639652 145.05189,0 262.63968,117.587772 262.63968,262.639652 z"
       transform="translate(-49.497474,465.49416)" />
    <g
       clip-path="url(#clipPath)"
       id="g5421">
      <g
         id="g5423">
        <path
           sodipodi:type="arc"
           style="fill:none;stroke:#ffffff;stroke-opacity:1;stroke-width:10;filter:url(#filter);"
           id="path5425"
           sodipodi:cx="345.47217"
           sodipodi:cy="288.87302"
           sodipodi:rx="262.63968"
           sodipodi:ry="262.63965"
           d="m 608.11185,288.87302 c 0,145.05187 -117.58779,262.63964 -262.63968,262.63964 -145.05189,0 -262.639681,-117.58777 -262.639681,-262.63964 0,-145.05188 117.587791,-262.639652 262.639681,-262.639652 145.05189,0 262.63968,117.587772 262.63968,262.639652 z"
           transform="translate(-49.497474,465.49416)" />
        <path
           sodipodi:type="arc"
           style="fill:none;stroke:#000000;stroke-opacity:1;stroke-width:10;filter:url(#filter);"
           id="path5427"
           sodipodi:cx="345.47217"
           sodipodi:cy="288.87302"
           sodipodi:rx="262.63968"
           sodipodi:ry="262.63965"
           d="m 608.11185,288.87302 c 0,145.05187 -117.58779,262.63964 -262.63968,262.63964 -145.05189,0 -262.639681,-117.58777 -262.639681,-262.63964 0,-145.05188 117.587791,-262.639652 262.639681,-262.639652 145.05189,0 262.63968,117.587772 262.63968,262.639652 z"
           transform="translate(-49.497474,465.49416)" />
      </g>
    </g>
    <path
       style="fill:#000000;stroke:none"
       d="m 195.02756,560.73354 c -14.08313,0.33608 -27.84073,8.56087 -36.68491,23.7022 -14.89315,25.50129 -10.14591,61.075 10.59032,79.38936 0.82112,0.72482 1.65417,1.27786 2.49934,1.92744 18.94873,-18.32807 49.85004,-71.26353 54.05304,-91.73535 -0.86441,-0.88723 -1.69734,-1.78425 -2.62642,-2.60464 -8.42455,-7.44025 -18.19555,-10.90895 -27.83137,-10.67901 z m 34.39739,17.76362 c -5.16727,28.17477 -33.05325,68.41329 -51.55373,91.42279 9.73102,5.08112 20.40237,5.81198 30.24596,2.50045 0.0207,-0.0268 0.0635,-0.0253 0.0847,-0.052 6.24432,-7.79955 13.16537,-18.03864 18.68136,-27.50497 5.55349,-9.53161 11.2628,-20.6256 15.12298,-30.57844 -0.62291,-13.10969 -4.92979,-25.88094 -12.58132,-35.78774 z m 54.47666,36.20448 c -2.81781,0.0866 -5.57381,1.82775 -7.20144,4.9488 l -13.85214,26.56732 c -1.39677,2.67847 -6.02434,7.55974 -5.37989,10.41854 0.557,2.47099 5.19174,5.33953 7.07435,6.82416 l 17.83409,9.42879 c 4.06072,3.20221 7.68977,1.76388 10.2938,-3.22976 l 13.8098,-26.51521 c 1.16104,-2.22664 2.97736,-5.36885 2.71113,-7.81391 -0.33062,-3.03846 -3.08743,-5.31024 -5.33753,-7.08461 L 288.81551,616.3686 c -1.52285,-1.20086 -3.22311,-1.71887 -4.9139,-1.66696 z m -37.9134,3.12555 c -0.0116,0.0274 -0.0317,0.0754 -0.0425,0.10419 l 0.0847,0.20837 c -1.52307,3.60102 -3.19055,7.28613 -4.95628,10.99157 -0.0239,0.0549 -0.0594,0.10166 -0.0847,0.1562 -3.0816,6.40508 -6.49791,12.82694 -10.29379,19.3264 -3.7387,6.40153 -7.6292,12.41228 -11.52228,17.97201 -0.0205,0.015 -0.0211,0.037 -0.0425,0.052 -2.29687,3.25845 -4.55069,6.41519 -6.86252,9.37671 4.13684,3.09834 8.81936,6.60574 13.38617,10.05388 3.65081,-6.4693 7.47686,-12.75793 11.47991,-18.80548 4.20442,-6.79639 11.18776,-13.31828 18.25773,-8.23066 -2.90074,-8.17885 6.27863,-13.18466 8.04866,-20.15988 0.48179,-0.65164 0.95786,-1.3493 1.39792,-2.08371 -6.74513,-6.66432 -13.09529,-13.06539 -18.85079,-18.96179 z m 72.48023,17.97201 c -2.96476,0.0282 -5.82947,1.86915 -7.45559,5.20928 l -12.96257,26.61939 c -1.31584,2.7027 -4.4175,7.08614 -3.72779,9.89764 0.60919,2.48314 4.79442,3.46761 6.73545,4.8967 3.06751,1.94725 14.54783,5.73099 14.69935,10.78322 0.17124,5.70997 -4.37051,16.19703 -1.14373,22.2957 1.62286,1.19485 6.61927,-6.87051 9.87018,-12.76274 1.39799,-2.53392 2.99248,-4.09404 3.51599,-4.89672 1.23668,-1.89598 2.59691,-3.23403 3.68544,-5.46973 l 12.96255,-26.56731 c 2.47799,-5.08975 1.13128,-11.74714 -3.00766,-14.79435 L 323.04345,637.3099 c -1.4228,-1.04749 -3.02194,-1.52552 -4.57501,-1.5107 z m -68.79478,24.79615 c -0.20528,0.0136 -0.42556,0.015 -0.63543,0.052 -1.99636,0.7541 -3.76241,1.91814 -5.37987,3.33395 -0.10427,0.10817 -0.23344,0.19981 -0.33891,0.31255 -2.43794,2.60642 -5.19519,6.37972 -8.091,10.93949 -2.71397,4.78537 -5.15631,9.87481 -8.04865,13.96085 -11.27118,20.89692 -22.02789,46.38099 -22.02789,51.57182 0,9.19971 23.67847,39.6829 35.20226,64.38665 11.29563,24.21472 25.37829,41.66803 24.06123,45.3728 -3.49384,24.80858 -5.38024,35.55538 -8.81115,66.00152 -3.4308,30.44623 0.12701,30.47426 0.12701,30.47426 0,0 91.81656,-0.37648 93.6185,-0.57302 1.80181,-0.19653 1.44029,-3.33393 1.44029,-3.33393 0,-3.59531 0.59401,-7.7957 1.18613,-10.99158 0.59211,-3.19591 0.46596,-25.61405 0.46596,-34.64169 -0.88233,-8.56864 1.29496,-40.21606 1.60974,-41.6742 0.3149,-1.45812 2.10634,-4.10084 4.19377,-6.66787 2.08755,-2.56701 5.50698,-10.57483 5.50698,-10.57483 4.17756,-6.84869 5.11635,-5.31489 7.15904,-10.67902 1.40411,-3.68743 3.43041,-15.58757 4.87156,-23.44174 -7.11032,-5.42932 -14.13202,-11.12551 -21.30774,-16.35713 l -1.18612,1.30232 c -0.68319,1.17696 -1.92415,1.08787 -2.58403,-0.83348 -0.65976,-1.92135 -2.32988,-3.28183 -2.32988,-3.28183 -2.07319,-0.95959 -6.64327,-7.19364 -12.75076,-13.85668 -5.26081,-8.03178 -11.71111,-7.43056 -15.16536,-9.11624 -3.45424,-1.68564 -26.90193,-7.76511 -29.90708,-7.97018 -3.00516,-0.20504 0,4.63626 0,4.63626 5.45098,8.82885 23.17531,34.99077 23.25636,35.11051 -0.10841,-0.10618 -0.36214,-0.0125 2.58405,8.38692 3.36707,9.59943 5.70637,20.2047 7.87921,24.79616 1.79963,9.41067 5.63221,12.35246 7.70975,13.7004 2.0774,1.34797 1.3132,2.50045 1.3132,2.50045 -1.37101,0.91263 -4.33272,4.58417 -5.97294,4.58417 -1.64023,0 -3.55836,2.96929 -3.55836,2.96929 -2.01601,2.21984 0.76251,59.55649 0.76251,62.14663 0,2.59012 -1.14376,3.22977 -1.14376,3.22977 0,0 -1.03815,-1.25629 -0.72015,-2.60463 0.31803,-1.34834 -0.51416,-16.69245 -1.01666,-20.212 -1.13671,-2.9006 -0.72014,-6.51157 -0.72014,-6.51157 0.73348,-4.30136 -2.61531,-30.9172 -3.47363,-34.43333 -0.85849,-3.51612 -0.0509,-7.30305 -1.22849,-8.7516 -1.17785,-1.44853 -12.29495,-0.0647 -13.21672,-1.19812 -0.92179,-1.1335 0,-1.14604 0,-1.14604 5.58709,-0.64087 18.25684,-12.20881 18.30008,-15.67992 0.0434,-3.47112 -39.83576,-75.97997 -43.54743,-78.66007 -3.71154,-2.6801 -10.17464,-4.29822 -11.98825,-5.41764 -1.81346,-1.11946 -4.86124,-4.23758 -9.5313,-5.00091 -4.67005,-0.76335 -5.30263,-1.92073 -5.63405,-2.76092 -0.33143,-0.84019 3.72779,-1.56277 3.72779,-1.56277 5.38891,-4.61801 8.76961,-16.08621 7.32852,-20.57666 -1.44111,-4.49043 -0.25417,-5.46973 -0.25417,-5.46973 4.44635,2.54712 16.8598,19.17014 16.8598,19.17014 8.52188,2.293 23.77561,-5.09124 28.80571,-7.97019 5.03005,-2.87893 6.23711,-20.30313 5.37987,-23.91058 -0.35665,-1.50083 -9.8659,-7.22725 -21.3501,-13.49202 -0.42203,-0.11307 -0.86323,-0.29868 -1.22849,-0.62511 -10.18094,-5.51844 -21.59749,-11.2972 -29.9918,-15.05481 0.28599,0.71489 0.61322,1.40905 0.88959,2.0837 -2.03586,-1.07058 -3.95348,-2.90849 -5.97297,-4.27159 -0.0624,-0.0251 -0.10797,-0.0275 -0.16942,-0.0521 -2.16036,-0.86342 -3.84885,-1.44203 -4.95628,-1.66697 z m 99.04076,12.50226 c -2.53043,0.0681 -5.01083,1.44495 -6.69309,4.06324 l -33.29599,58.60435 c -2.99065,4.65475 -2.34499,11.48141 1.44028,15.15899 l 15.67368,9.22042 c 3.78512,3.67752 9.3365,2.88357 12.32716,-1.77115 l 32.19459,-50.11323 c 2.9905,-4.65476 2.34499,-11.48147 -1.44028,-15.159 l -14.5723,-17.71153 c -1.65595,-1.60894 -3.66578,-2.34498 -5.63405,-2.29209 z m -57.23014,2.96931 c -1.30789,0.241 0.38477,1.50139 0,0 z m 85.78167,32.14122 c -0.74881,0.0273 -1.47947,0.3323 -2.03335,0.98976 l -35.83768,52.82205 c -2.2154,2.6298 -2.48006,6.8145 -0.5507,9.27252 l 9.78547,12.45016 c 1.92951,2.45804 5.32492,2.31723 7.54032,-0.31256 l 39.22658,-46.57093 c 2.2154,-2.62982 2.4377,-6.81446 0.50833,-9.27251 l -12.15769,-15.31527 c -1.44706,-1.84352 -4.23458,-4.14532 -6.48128,-4.06322 z m -66.59199,13.5441 -20.84177,7.08462 c -3.45236,1.14744 -10.82072,3.93821 -12.92022,-0.36464 -2.09934,-4.30286 -2.15337,-5.48612 -4.78682,-5.31347 -4.33358,1.05129 -3.21294,5.63765 -2.20279,7.08462 2.04243,2.92543 15.92143,14.39929 23.25637,17.55526 0.89956,0.387 1.67372,-0.28869 3.05002,-2.813 1.37629,-2.52435 13.45687,-19.17037 14.52993,-21.14967 0.83978,-2.03669 -0.0847,-2.08372 -0.0847,-2.08372 z m 74.89482,31.56821 c -5.67319,6.53405 -11.5318,12.94236 -16.85983,19.79525 -3.58317,3.15955 -7.11177,9.8111 -11.31046,13.33576 12.46673,9.4551 24.28885,18.4059 34.48211,25.99428 2.79152,2.46526 9.45731,-3.04856 14.82644,-12.2418 5.36911,-9.19287 7.45135,-18.57988 4.65977,-21.04547 -7.68732,-7.90471 -16.42385,-16.63305 -25.79803,-25.83802 z m 28.97512,35.99611 c -1.95939,9.1418 -7.12791,17.58818 -13.51326,23.12918 l 6.18476,5.10508 c 2.78176,2.31947 6.55449,1.46672 8.47225,-1.92742 l 6.31184,-11.14785 c 1.91836,-3.39363 1.2568,-7.94288 -1.52501,-10.26228 l -5.93058,-4.89671 z"
       id="path3627"
       inkscape:connector-curvature="0" />
  </g>
</svg>
