<?xml version="1.0" encoding="UTF-8" standalone="no"?>
<!-- Created with Inkscape (http://www.inkscape.org/) -->

<svg
   xmlns:dc="http://purl.org/dc/elements/1.1/"
   xmlns:cc="http://creativecommons.org/ns#"
   xmlns:rdf="http://www.w3.org/1999/02/22-rdf-syntax-ns#"
   xmlns:svg="http://www.w3.org/2000/svg"
   xmlns="http://www.w3.org/2000/svg"
   xmlns:sodipodi="http://sodipodi.sourceforge.net/DTD/sodipodi-0.dtd"
   xmlns:inkscape="http://www.inkscape.org/namespaces/inkscape"
   width="600"
   height="600"
   id="svg5310"
   version="1.1"
   inkscape:version="0.48.4 r9939"
   sodipodi:docname="boton-rojo.svg">
  <sodipodi:namedview
     id="base"
     pagecolor="#ffffff"
     bordercolor="#666666"
     borderopacity="1.0"
     inkscape:pageopacity="0.0"
     inkscape:pageshadow="2"
     inkscape:zoom="0.98994949"
     inkscape:cx="89.598562"
     inkscape:cy="248.53061"
     inkscape:document-units="px"
     inkscape:current-layer="layer1"
     showgrid="false"
     inkscape:window-width="1856"
     inkscape:window-height="1056"
     inkscape:window-x="64"
     inkscape:window-y="24"
     inkscape:window-maximized="1" />
  <defs
     id="defs5312">
    <clipPath
       id="clipPath">
      <path
         sodipodi:type="arc"
         style="fill:#e60000;fill-opacity:1;stroke:#ea0000;stroke-width:1;stroke-miterlimit:4;stroke-opacity:1;stroke-dasharray:none"
         id="path5324"
         sodipodi:cx="345.47217"
         sodipodi:cy="288.87302"
         sodipodi:rx="262.63968"
         sodipodi:ry="262.63965"
         d="m 608.11185,288.87302 a 262.63968,262.63965 0 1 1 -525.279361,0 262.63968,262.63965 0 1 1 525.279361,0 z"
         transform="translate(-49.497474,465.49416)" />
    </clipPath>
    <filter
       id="filter"
       height="2.0"
       width="2.0"
       x="-0.5"
       y="-0.5">
      <feGaussianBlur
         stdDeviation="5.0"
         id="feGaussianBlur5414" />
    </filter>
  </defs>
  <metadata
     id="metadata5315">
    <rdf:RDF>
      <cc:Work
         rdf:about="">
        <dc:format>image/svg+xml</dc:format>
        <dc:type
           rdf:resource="http://purl.org/dc/dcmitype/StillImage" />
      </cc:Work>
    </rdf:RDF>
  </metadata>
  <g
     inkscape:label="Capa 1"
     inkscape:groupmode="layer"
     id="layer1"
     transform="translate(0,-452.36218)">
    <path
       sodipodi:type="arc"
       style="fill:#e60000;fill-opacity:1;stroke:#ea0000;stroke-width:1;stroke-miterlimit:4;stroke-opacity:1;stroke-dasharray:none"
       id="path5419"
       sodipodi:cx="345.47217"
       sodipodi:cy="288.87302"
       sodipodi:rx="262.63968"
       sodipodi:ry="262.63965"
       d="m 608.11185,288.87302 c 0,145.05187 -117.58779,262.63964 -262.63968,262.63964 -145.05189,0 -262.639681,-117.58777 -262.639681,-262.63964 0,-145.05188 117.587791,-262.639652 262.639681,-262.639652 145.05189,0 262.63968,117.587772 262.63968,262.639652 z"
       transform="translate(-49.497474,465.49416)" />
    <g
       clip-path="url(#clipPath)"
       id="g5421">
      <g
         id="g5423">
        <path
           sodipodi:type="arc"
           style="fill:none;stroke:#ffffff;stroke-opacity:1;stroke-width:10;filter:url(#filter);"
           id="path5425"
           sodipodi:cx="345.47217"
           sodipodi:cy="288.87302"
           sodipodi:rx="262.63968"
           sodipodi:ry="262.63965"
           d="m 608.11185,288.87302 c 0,145.05187 -117.58779,262.63964 -262.63968,262.63964 -145.05189,0 -262.639681,-117.58777 -262.639681,-262.63964 0,-145.05188 117.587791,-262.639652 262.639681,-262.639652 145.05189,0 262.63968,117.587772 262.63968,262.639652 z"
           transform="translate(-49.497474,465.49416)" />
        <path
           sodipodi:type="arc"
           style="fill:none;stroke:#000000;stroke-opacity:1;stroke-width:10;filter:url(#filter);"
           id="path5427"
           sodipodi:cx="345.47217"
           sodipodi:cy="288.87302"
           sodipodi:rx="262.63968"
           sodipodi:ry="262.63965"
           d="m 608.11185,288.87302 c 0,145.05187 -117.58779,262.63964 -262.63968,262.63964 -145.05189,0 -262.639681,-117.58777 -262.639681,-262.63964 0,-145.05188 117.587791,-262.639652 262.639681,-262.639652 145.05189,0 262.63968,117.587772 262.63968,262.639652 z"
           transform="translate(-49.497474,465.49416)" />
      </g>
    </g>
  </g>
</svg>
