<?xml version="1.0" encoding="UTF-8" standalone="no"?>
<!-- Created with Inkscape (http://www.inkscape.org/) -->

<svg
   xmlns:dc="http://purl.org/dc/elements/1.1/"
   xmlns:cc="http://creativecommons.org/ns#"
   xmlns:rdf="http://www.w3.org/1999/02/22-rdf-syntax-ns#"
   xmlns:svg="http://www.w3.org/2000/svg"
   xmlns="http://www.w3.org/2000/svg"
   xmlns:sodipodi="http://sodipodi.sourceforge.net/DTD/sodipodi-0.dtd"
   xmlns:inkscape="http://www.inkscape.org/namespaces/inkscape"
   width="600"
   height="600"
   id="svg5310"
   version="1.1"
   inkscape:version="0.48.4 r9939"
   sodipodi:docname="boton-rojo.svg">
  <sodipodi:namedview
     id="base"
     pagecolor="#ffffff"
     bordercolor="#666666"
     borderopacity="1.0"
     inkscape:pageopacity="0.0"
     inkscape:pageshadow="2"
     inkscape:zoom="0.98994949"
     inkscape:cx="89.598562"
     inkscape:cy="248.53061"
     inkscape:document-units="px"
     inkscape:current-layer="layer1"
     showgrid="false"
     inkscape:window-width="1856"
     inkscape:window-height="1056"
     inkscape:window-x="64"
     inkscape:window-y="24"
     inkscape:window-maximized="1" />
  <defs
     id="defs5312">
    <clipPath
       id="clipPath">
      <path
         sodipodi:type="arc"
         style="fill:#e60000;fill-opacity:1;stroke:#ea0000;stroke-width:1;stroke-miterlimit:4;stroke-opacity:1;stroke-dasharray:none"
         id="path5324"
         sodipodi:cx="345.47217"
         sodipodi:cy="288.87302"
         sodipodi:rx="262.63968"
         sodipodi:ry="262.63965"
         d="m 608.11185,288.87302 a 262.63968,262.63965 0 1 1 -525.279361,0 262.63968,262.63965 0 1 1 525.279361,0 z"
         transform="translate(-49.497474,465.49416)" />
    </clipPath>
    <filter
       id="filter"
       height="2.0"
       width="2.0"
       x="-0.5"
       y="-0.5">
      <feGaussianBlur
         stdDeviation="5.0"
         id="feGaussianBlur5414" />
    </filter>
  </defs>
  <metadata
     id="metadata5315">
    <rdf:RDF>
      <cc:Work
         rdf:about="">
        <dc:format>image/svg+xml</dc:format>
        <dc:type
           rdf:resource="http://purl.org/dc/dcmitype/StillImage" />
        <dc:title></dc:title>
      </cc:Work>
    </rdf:RDF>
  </metadata>
  <g
     inkscape:label="Capa 1"
     inkscape:groupmode="layer"
     id="layer1"
     transform="translate(0,-452.36218)">
    <path
       sodipodi:type="arc"
       style="fill:#e60000;fill-opacity:1;stroke:#ea0000;stroke-width:1;stroke-miterlimit:4;stroke-opacity:1;stroke-dasharray:none"
       id="path5419"
       sodipodi:cx="345.47217"
       sodipodi:cy="288.87302"
       sodipodi:rx="262.63968"
       sodipodi:ry="262.63965"
       d="m 608.11185,288.87302 c 0,145.05187 -117.58779,262.63964 -262.63968,262.63964 -145.05189,0 -262.639681,-117.58777 -262.639681,-262.63964 0,-145.05188 117.587791,-262.639652 262.639681,-262.639652 145.05189,0 262.63968,117.587772 262.63968,262.639652 z"
       transform="translate(-49.497474,465.49416)" />
    <g
       clip-path="url(#clipPath)"
       id="g5421">
      <g
         id="g5423">
        <path
           sodipodi:type="arc"
           style="fill:none;stroke:#ffffff;stroke-opacity:1;stroke-width:10;filter:url(#filter);"
           id="path5425"
           sodipodi:cx="345.47217"
           sodipodi:cy="288.87302"
           sodipodi:rx="262.63968"
           sodipodi:ry="262.63965"
           d="m 608.11185,288.87302 c 0,145.05187 -117.58779,262.63964 -262.63968,262.63964 -145.05189,0 -262.639681,-117.58777 -262.639681,-262.63964 0,-145.05188 117.587791,-262.639652 262.639681,-262.639652 145.05189,0 262.63968,117.587772 262.63968,262.639652 z"
           transform="translate(-49.497474,465.49416)" />
        <path
           sodipodi:type="arc"
           style="fill:none;stroke:#000000;stroke-opacity:1;stroke-width:10;filter:url(#filter);"
           id="path5427"
           sodipodi:cx="345.47217"
           sodipodi:cy="288.87302"
           sodipodi:rx="262.63968"
           sodipodi:ry="262.63965"
           d="m 608.11185,288.87302 c 0,145.05187 -117.58779,262.63964 -262.63968,262.63964 -145.05189,0 -262.639681,-117.58777 -262.639681,-262.63964 0,-145.05188 117.587791,-262.639652 262.639681,-262.639652 145.05189,0 262.63968,117.587772 262.63968,262.639652 z"
           transform="translate(-49.497474,465.49416)" />
      </g>
    </g>
    <path
       style="fill:#0000ff;fill-opacity:1;stroke:#ea0000;stroke-width:0.68210089;stroke-miterlimit:4;stroke-opacity:1;stroke-dasharray:none"
       d="m 289.59606,925.64556 -60.13358,-0.82967 0.36387,-7.75226 c 0.31683,-6.75063 0.22523,-8.24392 -0.70887,-11.55714 -0.59001,-2.0927 -1.21752,-6.38063 -1.39451,-9.52879 -0.48118,-8.56032 1.29753,-29.80278 3.85884,-46.08509 1.81396,-11.53135 2.10849,-14.50151 1.70284,-17.1718 -0.26979,-1.77578 -0.64812,-6.00265 -0.84078,-9.39295 -0.19269,-3.39032 -0.78858,-9.13628 -1.32424,-12.76875 -0.5357,-3.6325 -1.74486,-12.98444 -2.68708,-20.78207 l -1.71308,-14.17749 -20.57584,-21.36512 c -18.07,-18.76317 -21.29461,-22.4524 -26.47795,-30.29298 -10.15486,-15.36081 -13.12047,-19.45368 -18.29058,-25.24288 -6.04805,-6.77225 -16.10631,-23.56977 -18.44128,-30.79733 -2.07916,-6.43578 -3.92154,-9.14368 -11.14093,-16.37472 -3.33899,-3.3444 -7.73745,-8.67513 -9.77436,-11.84612 -2.0369,-3.171 -4.69056,-7.03708 -5.89701,-8.59134 -1.73427,-2.23431 -2.32266,-3.72285 -2.81011,-7.10973 -0.45603,-3.16831 -0.96188,-4.546 -1.94263,-5.2908 -0.72932,-0.55387 -1.22929,-1.49666 -1.11106,-2.09513 0.45408,-2.29839 2.6179,-1.55168 6.34408,2.18929 3.7252,3.74003 9.3567,8.05295 9.72136,7.44519 0.52952,-0.8826 -3.97588,-7.68726 -9.32485,-14.0835 -7.0752,-8.46046 -7.73662,-10.28846 -3.72264,-10.28846 1.64679,0 3.23161,0.5816 4.06508,1.49181 l 1.366,1.49185 -0.38786,-3.82675 -0.38791,-3.82673 2.39278,0.54663 c 3.20583,0.73239 10.08281,6.1633 16.21647,12.80658 l 5.01655,5.43332 0.46966,-2.34839 c 0.27762,-1.38804 0.27003,-3.82437 -0.0188,-5.9576 -0.26854,-1.98508 -0.39467,-5.50432 -0.28031,-7.82057 0.18913,-3.83021 0.3844,-4.36142 2.15755,-5.86912 l 1.94961,-1.65779 0.66435,9.39156 c 0.50321,7.11337 0.96433,10.13919 1.90107,12.47368 1.10409,2.75163 2.7801,7.6059 4.86461,14.08968 0.38929,1.21081 0.84884,3.58842 1.02126,5.28357 0.57916,5.69433 1.61394,8.33865 3.75604,9.59807 4.78458,2.81307 10.09231,7.45766 12.05068,10.54517 4.2967,6.77394 6.65207,9.05807 14.10731,13.6807 6.10476,3.78522 8.87308,6.11836 14.42326,12.15583 7.12971,7.75571 16.88182,17.01207 21.25155,20.17124 2.1641,1.56459 3.95498,1.88888 12.56243,2.27482 9.28052,0.41617 10.17818,0.60064 11.88775,2.44321 6.9748,7.51731 8.09759,8.32766 11.88773,8.5797 l 3.69839,0.24583 0.15625,-3.08853 c 0.13388,-2.64531 -0.0773,-3.31837 -1.4706,-4.69032 -0.8948,-0.88098 -2.88145,-3.65201 -4.41478,-6.15781 -2.31886,-3.78954 -2.9487,-5.51896 -3.74399,-10.27992 -0.61913,-3.70637 -1.64998,-7.12072 -2.92459,-9.68664 -1.08267,-2.17952 -2.40517,-5.15154 -2.93889,-6.60456 -0.53374,-1.45299 -1.50189,-3.63249 -2.15146,-4.84332 -1.01713,-1.89599 -1.21774,-3.48471 -1.4454,-11.44783 -0.14532,-5.08551 -0.431,-10.54799 -0.63461,-12.13882 -0.31184,-2.43641 -0.0583,-3.67522 1.60747,-7.85702 1.77019,-4.44363 1.88765,-5.07428 1.11935,-6.01067 -0.49771,-0.60657 -0.86042,-2.30024 -0.86328,-4.03111 -0.004,-2.64547 0.66273,-4.07015 5.86421,-12.52373 l 5.86917,-9.53869 -1.13165,-4.53848 c -0.74735,-2.99737 -0.933,-4.64882 -0.54664,-4.86349 0.32176,-0.17888 0.80152,-1.27411 1.06611,-2.43414 0.54884,-2.40597 2.14143,-2.78213 3.3377,-0.78828 1.01584,1.69316 4.39319,1.69027 6.34391,-0.007 0.83233,-0.72348 1.84278,-1.31543 2.24545,-1.31543 0.40267,0 0.73212,-0.38249 0.73212,-0.84997 0,-0.46746 0.73618,-2.24746 1.63596,-3.95546 1.6225,-3.08004 1.64311,-3.09073 2.51059,-1.30519 0.82995,1.70833 0.975,1.73047 2.83802,0.43305 2.56324,-1.78504 2.60586,-1.76635 2.19505,0.96169 -0.3188,2.11711 -0.23562,2.28117 0.91453,1.80332 0.69587,-0.2891 2.27568,-0.74275 3.51071,-1.00804 7.14103,-1.53418 6.65018,-1.53387 5.73204,-0.004 -0.46468,0.77444 -0.84486,1.70198 -0.84486,2.0611 0,1.02604 2.48775,4.57593 7.92515,11.30874 7.92829,9.81712 8.02518,10.0087 7.62233,15.07 l -0.34114,4.28665 2.34479,0.98408 c 4.35911,1.82945 6.88337,6.96788 4.68418,9.53523 -0.94055,1.09803 -1.10389,2.14243 -1.05507,6.74643 0.0319,2.99597 -0.25073,6.63607 -0.62778,8.08907 -0.45513,1.75393 -0.69644,7.08125 -0.71796,15.85088 -0.0279,11.3625 -0.22653,14.42355 -1.42131,21.89681 -0.88085,5.5097 -1.9902,10.10953 -3.0326,12.57436 -0.90404,2.13763 -1.64366,4.43216 -1.64366,5.09898 0,0.66682 2.01069,4.2549 4.46818,7.97352 l 4.46817,6.76111 1.6625,-3.15592 c 0.91439,-1.73577 2.06652,-3.15592 2.56034,-3.15592 0.49379,0 2.90615,1.6216 5.36077,3.60355 3.93062,3.17371 4.7151,3.51894 6.57639,2.89416 1.16234,-0.39021 5.20418,-0.72301 8.98184,-0.73956 5.25361,-0.0245 7.3781,0.31801 9.0361,1.44986 1.829,1.24872 2.28302,1.2929 2.90591,0.28279 1.33954,-2.17258 4.19929,-2.81807 7.04125,-1.58938 1.46049,0.63144 3.45958,0.89661 4.44238,0.58931 1.75626,-0.54913 5.92513,-3.95334 7.48246,-6.10993 0.43587,-0.6036 1.75956,-1.52638 2.9415,-2.05062 1.18193,-0.52424 4.15389,-2.98323 6.60431,-5.46434 6.13965,-6.21667 8.62516,-7.66832 14.32636,-8.36739 4.16984,-0.51126 5.24572,-0.97536 7.03592,-3.03504 2.39771,-2.75856 7.60392,-5.30616 15.32196,-7.49753 2.90588,-0.82506 6.82886,-2.56348 8.71767,-3.86313 1.88884,-1.29967 6.28731,-3.85242 9.77438,-5.67277 3.48705,-1.82032 7.5289,-4.10352 8.98184,-5.07372 4.59073,-3.06547 9.87603,-5.25029 11.37418,-4.7018 1.30503,0.47772 1.58854,0.0829 3.05907,-4.25994 1.04354,-3.08195 2.99553,-6.68526 5.48145,-10.11866 2.12342,-2.93276 4.76787,-7.14724 5.87656,-9.36551 1.10873,-2.21827 2.23804,-3.80429 2.50965,-3.5245 1.04211,1.07344 0.52645,7.91431 -0.82705,10.97198 -0.72647,1.64119 -1.32086,3.51386 -1.32086,4.16141 0,2.04494 1.60117,2.35633 2.39559,0.46592 1.2071,-2.87241 5.55079,-6.99282 9.08641,-8.61939 3.09953,-1.42595 3.37305,-1.42705 4.66228,-0.0175 1.21542,1.32732 1.29086,1.69319 0.66991,3.25007 -0.79741,1.99936 -1.75271,2.94518 -7.33906,7.26617 -2.83609,2.19373 -4.18534,3.77881 -4.64367,5.45534 -0.62876,2.29999 -0.60661,2.34875 0.82759,1.82489 7.06303,-2.57986 11.44882,-3.9876 14.02042,-4.50019 2.95091,-0.5882 3.05196,-0.53831 3.57769,1.76643 0.37299,1.63506 0.36856,2.71812 -0.015,3.48697 -0.39129,0.78585 -0.36301,1.81862 0.0958,3.49694 0.5863,2.14479 0.52215,2.54911 -0.64482,4.06392 -0.71274,0.9252 -1.81427,1.91512 -2.44786,2.19989 -0.96133,0.43205 -1.13616,1.09676 -1.05666,4.01671 l 0.0952,3.499 -6.60429,3.81051 c -3.63236,2.09577 -8.38744,4.89597 -10.56686,6.22272 -2.30499,1.40317 -5.50969,2.58287 -7.66098,2.82013 -3.01489,0.33264 -3.89372,0.78111 -4.75511,2.42732 -0.64578,1.23414 -5.47394,5.00601 -12.41607,9.69976 -6.24766,4.22422 -14.56908,9.86383 -18.49204,12.5325 -10.37675,7.05899 -22.24029,17.20987 -26.59114,22.75242 -3.32776,4.23915 -4.72051,5.31849 -11.44958,8.87286 -17.64926,9.32254 -38.4725,22.81467 -41.94033,27.17465 l -1.40084,1.76122 2.14358,10.56726 c 1.17896,5.81199 2.47904,13.44105 2.88913,16.95345 0.44714,3.83024 1.50409,8.64695 2.64082,12.03484 2.57867,7.6854 5.02002,19.14069 5.04095,23.65314 0.019,3.94184 0.56842,6.76502 4.32803,22.20992 2.88408,11.84828 3.09583,12.53229 7.72098,24.93824 2.04392,5.48241 3.86501,11.09715 4.04689,12.47728 0.71163,5.40023 -2.9315,12.3386 -6.47867,12.3386 -2.62502,0 -8.42766,7.47251 -9.66319,12.44406 -0.48636,1.95706 -0.94073,2.48976 -2.01666,2.36444 -0.76389,-0.0891 -28.44894,-0.53514 -61.52242,-0.99149 l 0,0 z"
       id="path10901"
       inkscape:connector-curvature="0" />
  </g>
</svg>
