<?xml version="1.0" encoding="UTF-8" standalone="no"?>
<!-- Created with Inkscape (http://www.inkscape.org/) -->

<svg
   xmlns:dc="http://purl.org/dc/elements/1.1/"
   xmlns:cc="http://creativecommons.org/ns#"
   xmlns:rdf="http://www.w3.org/1999/02/22-rdf-syntax-ns#"
   xmlns:svg="http://www.w3.org/2000/svg"
   xmlns="http://www.w3.org/2000/svg"
   xmlns:sodipodi="http://sodipodi.sourceforge.net/DTD/sodipodi-0.dtd"
   xmlns:inkscape="http://www.inkscape.org/namespaces/inkscape"
   width="600"
   height="600"
   id="svg5310"
   version="1.1"
   inkscape:version="0.48.4 r9939"
   sodipodi:docname="boton-rojo.svg">
  <sodipodi:namedview
     id="base"
     pagecolor="#ffffff"
     bordercolor="#666666"
     borderopacity="1.0"
     inkscape:pageopacity="0.0"
     inkscape:pageshadow="2"
     inkscape:zoom="0.98994949"
     inkscape:cx="89.598562"
     inkscape:cy="248.53061"
     inkscape:document-units="px"
     inkscape:current-layer="layer1"
     showgrid="false"
     inkscape:window-width="1856"
     inkscape:window-height="1056"
     inkscape:window-x="64"
     inkscape:window-y="24"
     inkscape:window-maximized="1" />
  <defs
     id="defs5312">
    <clipPath
       id="clipPath">
      <path
         sodipodi:type="arc"
         style="fill:#e60000;fill-opacity:1;stroke:#ea0000;stroke-width:1;stroke-miterlimit:4;stroke-opacity:1;stroke-dasharray:none"
         id="path5324"
         sodipodi:cx="345.47217"
         sodipodi:cy="288.87302"
         sodipodi:rx="262.63968"
         sodipodi:ry="262.63965"
         d="m 608.11185,288.87302 a 262.63968,262.63965 0 1 1 -525.279361,0 262.63968,262.63965 0 1 1 525.279361,0 z"
         transform="translate(-49.497474,465.49416)" />
    </clipPath>
    <filter
       id="filter"
       height="2.0"
       width="2.0"
       x="-0.5"
       y="-0.5">
      <feGaussianBlur
         stdDeviation="5.0"
         id="feGaussianBlur5414" />
    </filter>
  </defs>
  <metadata
     id="metadata5315">
    <rdf:RDF>
      <cc:Work
         rdf:about="">
        <dc:format>image/svg+xml</dc:format>
        <dc:type
           rdf:resource="http://purl.org/dc/dcmitype/StillImage" />
        <dc:title></dc:title>
      </cc:Work>
    </rdf:RDF>
  </metadata>
  <g
     inkscape:label="Capa 1"
     inkscape:groupmode="layer"
     id="layer1"
     transform="translate(0,-452.36218)">
    <path
       sodipodi:type="arc"
       style="fill:#e60000;fill-opacity:1;stroke:#ea0000;stroke-width:1;stroke-miterlimit:4;stroke-opacity:1;stroke-dasharray:none"
       id="path5419"
       sodipodi:cx="345.47217"
       sodipodi:cy="288.87302"
       sodipodi:rx="262.63968"
       sodipodi:ry="262.63965"
       d="m 608.11185,288.87302 c 0,145.05187 -117.58779,262.63964 -262.63968,262.63964 -145.05189,0 -262.639681,-117.58777 -262.639681,-262.63964 0,-145.05188 117.587791,-262.639652 262.639681,-262.639652 145.05189,0 262.63968,117.587772 262.63968,262.639652 z"
       transform="translate(-49.497474,465.49416)" />
    <g
       clip-path="url(#clipPath)"
       id="g5421">
      <g
         id="g5423">
        <path
           sodipodi:type="arc"
           style="fill:none;stroke:#ffffff;stroke-opacity:1;stroke-width:10;filter:url(#filter);"
           id="path5425"
           sodipodi:cx="345.47217"
           sodipodi:cy="288.87302"
           sodipodi:rx="262.63968"
           sodipodi:ry="262.63965"
           d="m 608.11185,288.87302 c 0,145.05187 -117.58779,262.63964 -262.63968,262.63964 -145.05189,0 -262.639681,-117.58777 -262.639681,-262.63964 0,-145.05188 117.587791,-262.639652 262.639681,-262.639652 145.05189,0 262.63968,117.587772 262.63968,262.639652 z"
           transform="translate(-49.497474,465.49416)" />
        <path
           sodipodi:type="arc"
           style="fill:none;stroke:#000000;stroke-opacity:1;stroke-width:10;filter:url(#filter);"
           id="path5427"
           sodipodi:cx="345.47217"
           sodipodi:cy="288.87302"
           sodipodi:rx="262.63968"
           sodipodi:ry="262.63965"
           d="m 608.11185,288.87302 c 0,145.05187 -117.58779,262.63964 -262.63968,262.63964 -145.05189,0 -262.639681,-117.58777 -262.639681,-262.63964 0,-145.05188 117.587791,-262.639652 262.639681,-262.639652 145.05189,0 262.63968,117.587772 262.63968,262.639652 z"
           transform="translate(-49.497474,465.49416)" />
      </g>
    </g>
    <path
       inkscape:connector-curvature="0"
       id="path3004"
       style="fill:#ff6600"
       d="m 246.12699,960.47588 c 0.21965,-0.73913 2.20134,-9.31977 2.20134,-10.29788 0,-0.98366 -0.21964,-5.14894 0.22213,-6.37434 0.43927,-1.22263 1.09818,-4.90163 1.3203,-5.88252 0.22213,-0.98088 0.21964,-3.4317 -0.21963,-5.14617 -0.43926,-1.71724 -1.10067,-5.15171 -0.6589,-7.84707 0.43925,-2.69812 1.54243,-8.33611 1.76206,-9.06969 0.21714,-0.73636 0.43927,-3.67623 -0.21963,-4.90442 -0.66141,-1.22262 -1.54243,-3.18439 -1.32031,-5.39624 0.21964,-2.20351 0.88105,-5.39069 0.6589,-7.10792 -0.21962,-1.71447 -0.21962,-4.16528 -0.88102,-6.37435 -0.66141,-2.2063 -1.76207,-5.87975 -2.20134,-7.84151 -0.44176,-1.96454 -2.64309,-9.80605 -3.08236,-12.25965 -0.44177,-2.45083 -1.54244,-8.33334 -1.54244,-9.0697 0,-0.73636 -0.21963,-2.94265 -0.21963,-2.94265 0,0 -3.08237,-4.16806 -3.74376,-4.90442 -0.6614,-0.73635 -5.9451,-5.6352 -6.82613,-5.6352 -0.88352,0 -3.74377,-1.71447 -4.84443,-1.96177 -1.10067,-0.24731 -3.30199,-2.2063 -5.06157,-2.94266 -1.76206,-0.73913 -4.18553,-1.22819 -5.94759,-2.94264 -1.75958,-1.71446 -3.74377,-2.94543 -5.06407,-4.90441 -1.3203,-1.959 -2.86273,-4.16806 -4.18304,-5.8853 -1.32028,-1.71447 -3.52162,-3.4317 -4.18302,-4.40981 -0.6614,-0.98366 -0.6614,1.46994 -1.53993,1.46994 -0.88354,0 -1.9817,-0.73915 -3.08238,-1.71724 -1.10065,-0.98089 -3.08235,-2.94266 -3.30199,-3.92075 -0.21963,-0.98367 0.43925,-2.94544 0.43925,-2.94544 0,0 -2.64059,-2.94265 -3.30198,-3.42891 -0.65892,-0.49184 -3.302,-2.69813 -4.18304,-3.18717 -0.88103,-0.48907 -2.64309,-3.18719 -2.64309,-3.18719 l 0.66139,-10.53685 -1.54243,-7.35523 c 0,0 -0.88103,-10.29788 0.88104,-14.21864 1.76206,-3.92076 2.86272,-5.88253 2.86272,-6.61888 0,-0.73636 0.43929,-2.45082 0.21965,-5.14895 -0.21965,-2.6981 -1.32031,-4.6571 -1.32031,-7.10792 0,-2.4536 -1.10067,-9.07525 -0.88103,-10.05335 0.21713,-0.98089 -13.43262,-15.44682 -13.43262,-15.44682 0,0 -5.06407,-1.71447 -5.06407,-9.55875 0,-7.84151 2.64311,-22.30746 3.302,-23.28555 0.6614,-0.98366 5.94509,-17.16407 5.94509,-17.16407 l 1.76207,-8.57786 2.42097,-7.8443 -1.10066,-1.47269 c 0,0 11.67055,-31.12986 17.17389,-38.97414 5.50582,-7.84428 17.39601,-17.16128 22.67972,-19.61487 5.28371,-2.44805 12.33196,-4.4126 15.63396,-5.14896 3.302,-0.73634 6.60398,-1.46992 7.70716,-1.71445 1.10066,-0.2473 8.14643,-2.69813 10.5674,-5.14894 2.42097,-2.4536 3.96338,-2.69813 4.62479,-4.41258 0.6614,-1.71447 -0.88103,-7.84707 -0.21964,-10.29788 0.66141,-2.45083 3.9634,-11.27322 5.50334,-13.23776 1.54244,-1.96176 8.58819,-13.97134 11.01166,-15.44683 2.42097,-1.46715 4.84192,-4.90164 6.82363,-4.65711 1.98171,0.2473 3.08236,-1.71446 5.72546,-1.71446 2.64311,0 10.5699,-1.46993 12.5516,-0.73912 1.9817,0.73912 1.9817,0.49182 3.96091,0.98365 1.98169,0.49183 10.13061,2.45081 11.45091,4.90441 1.3203,2.45082 9.46674,16.66946 10.34777,20.10117 0.88104,3.43169 2.86273,12.74591 2.42095,17.4058 -0.43925,4.65711 0,9.07248 -1.32028,12.99323 -1.32032,3.92075 -2.20134,17.65311 -3.3045,19.61488 -1.09817,1.95899 -2.86024,5.87974 -4.18303,7.84151 -1.3228,1.96177 -4.18304,3.67901 -2.86273,8.33333 1.3203,4.6599 0.21963,4.6599 1.76206,6.37435 1.54243,1.71446 1.3228,3.4317 1.3228,3.4317 l -3.52413,-0.49183 -2.86024,-0.48905 c 0,0 -2.20133,-1.71724 -2.20133,-2.70089 0,-0.97812 -1.98171,3.43447 -1.98171,3.43447 0,0 0.43928,5.638 -0.21962,9.80606 -0.65892,4.16527 -1.54244,5.14894 -1.76207,7.59419 -0.21714,2.4536 0.44177,3.43449 -0.65891,5.8853 -1.10066,2.4536 -0.88102,2.94266 -1.76206,4.90442 -0.88103,1.96177 -1.32029,2.20629 -1.32029,4.90441 0,2.69535 0.21963,6.37158 0.43926,7.10793 0.21963,0.73636 0.66139,2.70091 0.44177,3.92353 -0.22214,1.22541 -0.6614,3.67623 -0.6614,3.67623 l -3.74377,0.49183 c 0,0 -1.9817,13.72403 -2.20133,15.68858 -0.22214,1.96177 -1.32281,7.59976 -1.54244,8.58063 -0.21963,0.98368 -1.09816,8.33613 -0.6589,9.07248 0.43927,0.73357 2.86273,4.65989 2.86273,4.65989 l 3.74376,3.18439 1.97921,0.49183 19.15809,-12.74869 c 0,0 0.43927,-11.03146 1.75958,-13.24053 1.3228,-2.20629 3.30449,-1.96177 3.96588,-1.22542 0.65891,0.73914 1.53995,4.66267 1.53995,4.66267 v 4.90441 l 9.02745,-5.64077 36.55162,-23.77737 11.23129,-7.11349 1.75957,-3.42892 1.9817,-3.4317 0.66139,-2.2063 c 0,0 3.79867,0.73635 3.9634,1.10036 0.16723,0.36958 2.97255,-0.55018 2.97255,-0.55018 0,0 -0.16473,-3.30665 1.15559,-2.94264 1.32029,0.36401 2.31114,2.20629 2.31114,2.20629 l 2.64309,-1.10314 c 0,0 0.32947,-2.94266 1.81698,-2.57587 1.48502,0.37235 2.31115,1.6589 2.31115,1.6589 l 3.30201,-1.46995 c 0,0 0.49666,-3.49561 1.48752,-2.94264 0.99085,0.55019 1.32278,2.20351 1.32278,2.20351 l 3.46674,-1.28654 c 0,0 -0.32946,-3.8624 0.66139,-3.12327 0.98835,0.73359 1.65225,2.02013 1.65225,2.02013 l 3.63395,-1.10037 c 0,0 1.15557,-4.04303 2.47837,-2.94266 1.3228,1.10037 1.81697,1.83951 1.81697,1.83951 0,0 4.12813,0.91698 4.78704,2.38969 0.66138,1.46993 0.99084,2.94264 0.66138,4.77937 -0.32945,1.8395 1.15558,4.22641 -1.32029,5.14894 -2.47589,0.92254 -4.78703,2.57586 -6.10983,2.02289 -1.3203,-0.55017 -2.64309,-1.28653 -3.46923,-0.18061 -0.82612,1.10036 -5.11897,7.71924 -6.93593,8.27499 -1.81697,0.5474 -10.89936,2.20628 -11.55825,2.38968 -0.6614,0.18062 -9.74378,3.67345 -9.74378,3.67345 l -13.37521,7.90821 -15.68887,11.58441 -23.44845,16.91398 1.81699,2.57865 c 0,0 1.81696,2.38691 0.82612,3.67622 -0.99085,1.28375 -2.47838,2.38691 -2.80782,3.12327 -0.32946,0.73636 -2.14644,2.94264 -2.14644,2.94264 0,0 -0.99084,2.75648 -1.65224,3.67623 -0.66141,0.91698 -1.65225,2.75647 -1.9817,2.20352 -0.32945,-0.54741 -0.32945,3.31222 -0.16473,4.22918 0.16473,0.91976 1.15558,3.49562 -0.16472,4.0458 -1.32031,0.55018 -3.96091,0.36679 -4.45757,0.18339 -0.49668,-0.18339 -6.60401,-1.46993 -6.60401,-1.46993 0,0 -8.58818,6.06869 -9.74375,6.06869 -1.15809,0 -11.06659,-0.55018 -11.06659,-0.55018 l -11.89019,8.08881 -0.82612,6.61886 c 0,0 0.99084,3.67625 4.45756,3.67625 h 8.75294 c 0.98835,0 7.2654,-2.02291 8.75292,-2.20907 1.48503,-0.18063 4.62479,0 5.45092,1.28931 0.82612,1.28654 1.65225,2.38691 1.65225,4.41258 0,2.02568 -0.49417,3.67623 -0.82613,4.77939 -0.33195,1.10313 -1.65225,5.8853 -1.65225,5.8853 0,0 -2.97255,3.86239 -4.29285,4.96276 -1.32279,1.10315 -19.98172,6.62165 -22.62481,7.53862 -2.64309,0.91975 -2.97256,0.91975 -2.64309,0.91975 0.32944,0 4.6248,5.69913 4.6248,5.69913 l 29.72547,26.29211 c 0,0 4.12812,3.4984 4.29286,4.04858 0.16473,0.55019 2.97255,4.22641 3.46673,6.6161 0.49666,2.38967 1.65223,4.78215 1.48752,7.35522 -0.16473,2.57308 -1.54244,21.87676 -1.9817,24.33035 -0.43927,2.44804 -1.76207,6.61887 -2.42098,9.31423 -0.66139,2.69811 -2.86272,7.84428 -3.30198,11.27876 -0.44178,3.42892 -1.9817,13.97411 -2.20135,14.71047 -0.21963,0.73358 -0.88104,3.42892 -1.10067,6.12982 -0.21963,2.69534 -1.98169,15.44126 -2.42345,17.1585 -0.44176,1.71447 -1.32031,9.80606 -1.10067,10.78694 0.21963,0.98089 0.21963,4.90442 0.43927,6.86619 l 0.21964,1.95898 -1.10067,4.4098 -70.03336,-1.46994 z" />
  </g>
</svg>
