<?xml version="1.0" encoding="UTF-8" standalone="no"?>
<!-- Created with Inkscape (http://www.inkscape.org/) -->

<svg
   xmlns:dc="http://purl.org/dc/elements/1.1/"
   xmlns:cc="http://creativecommons.org/ns#"
   xmlns:rdf="http://www.w3.org/1999/02/22-rdf-syntax-ns#"
   xmlns:svg="http://www.w3.org/2000/svg"
   xmlns="http://www.w3.org/2000/svg"
   xmlns:sodipodi="http://sodipodi.sourceforge.net/DTD/sodipodi-0.dtd"
   xmlns:inkscape="http://www.inkscape.org/namespaces/inkscape"
   width="600"
   height="600"
   id="svg5310"
   version="1.1"
   inkscape:version="0.48.4 r9939"
   sodipodi:docname="botonUnlock.svg">
  <sodipodi:namedview
     id="base"
     pagecolor="#ffffff"
     bordercolor="#666666"
     borderopacity="1.0"
     inkscape:pageopacity="0.0"
     inkscape:pageshadow="2"
     inkscape:zoom="0.98994949"
     inkscape:cx="-38.690812"
     inkscape:cy="248.53061"
     inkscape:document-units="px"
     inkscape:current-layer="g2527"
     showgrid="false"
     inkscape:window-width="1856"
     inkscape:window-height="1056"
     inkscape:window-x="1504"
     inkscape:window-y="24"
     inkscape:window-maximized="1" />
  <defs
     id="defs5312">
    <clipPath
       id="clipPath">
      <path
         sodipodi:type="arc"
         style="fill:#e60000;fill-opacity:1;stroke:#ea0000;stroke-width:1;stroke-miterlimit:4;stroke-opacity:1;stroke-dasharray:none"
         id="path5324"
         sodipodi:cx="345.47217"
         sodipodi:cy="288.87302"
         sodipodi:rx="262.63968"
         sodipodi:ry="262.63965"
         d="m 608.11185,288.87302 a 262.63968,262.63965 0 1 1 -525.279361,0 262.63968,262.63965 0 1 1 525.279361,0 z"
         transform="translate(-49.497474,465.49416)" />
    </clipPath>
    <filter
       id="filter"
       height="2.0"
       width="2.0"
       x="-0.5"
       y="-0.5">
      <feGaussianBlur
         stdDeviation="5.0"
         id="feGaussianBlur5414" />
    </filter>
    <linearGradient
       id="linearGradient2550"
       y2="359.01999"
       gradientUnits="userSpaceOnUse"
       x2="543.09003"
       gradientTransform="matrix(-0.27703,0,-0.033867,0.27703,305.28,-72.253)"
       y1="143.3"
       x1="211.05"
       inkscape:collect="always">
      <stop
         id="stop3197"
         style="stop-color:rgb(110, 110, 110)"
         offset="0" />
      <stop
         id="stop3205"
         style="stop-color:rgb(242, 242, 242)"
         offset=".29777" />
      <stop
         id="stop3203"
         style="stop-color:rgb(152, 152, 152)"
         offset=".59550" />
      <stop
         id="stop3207"
         style="stop-color:rgb(204, 204, 204)"
         offset=".68612" />
      <stop
         id="stop3199"
         style="stop-color:rgb(255, 255, 255)"
         offset="1" />
    </linearGradient>
    <radialGradient
       id="radialGradient2552"
       gradientUnits="userSpaceOnUse"
       cy="307.56"
       cx="345.03"
       gradientTransform="matrix(0.27703,0,0,0.286,88.926,-60.116)"
       r="45.568001"
       inkscape:collect="always">
      <stop
         id="stop3233"
         style="stop-color:rgb(0, 0, 0)"
         offset="0" />
      <stop
         id="stop3235"
         style="stop-color:rgb(0, 0, 0);stop-opacity:0"
         offset="1" />
    </radialGradient>
    <radialGradient
       id="radialGradient2554"
       gradientUnits="userSpaceOnUse"
       cy="255.61"
       cx="314.16"
       gradientTransform="matrix(0.27703,0,0,0.26845,89.346,-54.329)"
       r="36.715"
       inkscape:collect="always">
      <stop
         id="stop3255"
         style="stop-color:rgb(255, 255, 255)"
         offset="0" />
      <stop
         id="stop3257"
         style="stop-color:rgb(255, 255, 255);stop-opacity:0"
         offset="1" />
    </radialGradient>
    <linearGradient
       id="linearGradient2556"
       y2="406.87"
       gradientUnits="userSpaceOnUse"
       x2="405.89999"
       gradientTransform="matrix(0.27703,0,0,0.27703,126.78,-57.253)"
       y1="562.44"
       x1="261.81"
       inkscape:collect="always">
      <stop
         id="stop3157"
         style="stop-color:rgb(255, 186, 0)"
         offset="0" />
      <stop
         id="stop3159"
         style="stop-color:rgb(255, 235, 84)"
         offset="1" />
    </linearGradient>
    <linearGradient
       id="linearGradient2558"
       y2="485.67001"
       gradientUnits="userSpaceOnUse"
       x2="356.57999"
       gradientTransform="matrix(0.27703,0,0,0.27703,126.78,-57.253)"
       y1="502.84"
       x1="242.44"
       inkscape:collect="always">
      <stop
         id="stop3167"
         style="stop-color:rgb(196, 136, 0)"
         offset="0" />
      <stop
         id="stop3169"
         style="stop-color:rgb(255, 255, 255);stop-opacity:0"
         offset="1" />
    </linearGradient>
    <linearGradient
       id="linearGradient2560"
       y2="557.13"
       gradientUnits="userSpaceOnUse"
       x2="401.54001"
       gradientTransform="matrix(0.27703,0,0,0.27703,126.78,-57.253)"
       y1="623.79999"
       x1="387.89999"
       inkscape:collect="always">
      <stop
         id="stop3177"
         style="stop-color:rgb(196, 136, 0)"
         offset="0" />
      <stop
         id="stop3179"
         style="stop-color:rgb(196, 136, 0);stop-opacity:0"
         offset="1" />
    </linearGradient>
    <radialGradient
       id="radialGradient2562"
       gradientUnits="userSpaceOnUse"
       cy="331.91"
       cx="451.07001"
       gradientTransform="matrix(0.27703,0,0,0.84156,123.02,-247.17)"
       r="24.186001"
       inkscape:collect="always">
      <stop
         id="stop3245"
         style="stop-color:rgb(255, 255, 255)"
         offset="0" />
      <stop
         id="stop3247"
         style="stop-color:rgb(255, 255, 255);stop-opacity:0"
         offset="1" />
    </radialGradient>
    <radialGradient
       id="radialGradient2564"
       gradientUnits="userSpaceOnUse"
       cy="610.73999"
       cx="473.20999"
       gradientTransform="matrix(0.27703,0,0,0.18089,126.78,-4.3213)"
       r="92.621002"
       inkscape:collect="always">
      <stop
         id="stop3265"
         style="stop-color:rgb(255, 255, 255)"
         offset="0" />
      <stop
         id="stop3267"
         style="stop-color:rgb(255, 255, 255);stop-opacity:0"
         offset="1" />
    </radialGradient>
    <linearGradient
       id="linearGradient2566"
       y2="594.5"
       gradientUnits="userSpaceOnUse"
       x2="429.29001"
       gradientTransform="matrix(0.27703,0,0,0.27703,126.78,-57.253)"
       y1="284.85999"
       x1="346.07001"
       inkscape:collect="always">
      <stop
         id="stop3275"
         style="stop-color:rgb(255, 255, 255)"
         offset="0" />
      <stop
         id="stop3277"
         style="stop-color:rgb(255, 255, 255);stop-opacity:0"
         offset="1" />
    </linearGradient>
    <linearGradient
       id="linearGradient2568"
       y2="374.53"
       gradientUnits="userSpaceOnUse"
       x2="956.92999"
       y1="374.17001"
       x1="937.21002"
       inkscape:collect="always">
      <stop
         id="stop3556"
         style="stop-color:rgb(0, 0, 0)"
         offset="0" />
      <stop
         id="stop3558"
         style="stop-color:rgb(255, 196, 5)"
         offset="1" />
    </linearGradient>
    <radialGradient
       id="radialGradient2570"
       gradientUnits="userSpaceOnUse"
       cy="340.54001"
       cx="324.64001"
       gradientTransform="matrix(0.21109,-0.17745,0.10664,0.12685,111.87,64.344)"
       r="123.44"
       inkscape:collect="always">
      <stop
         id="stop3576"
         style="stop-color:rgb(255, 255, 255)"
         offset="0" />
      <stop
         id="stop3578"
         style="stop-color:rgb(255, 255, 255);stop-opacity:0"
         offset="1" />
    </radialGradient>
  </defs>
  <metadata
     id="metadata5315">
    <rdf:RDF>
      <cc:Work
         rdf:about="">
        <dc:format>image/svg+xml</dc:format>
        <dc:type
           rdf:resource="http://purl.org/dc/dcmitype/StillImage" />
        <dc:title />
      </cc:Work>
    </rdf:RDF>
  </metadata>
  <g
     inkscape:label="Capa 1"
     inkscape:groupmode="layer"
     id="layer1"
     transform="translate(0,-452.36218)">
    <path
       sodipodi:type="arc"
       style="fill:#e60000;fill-opacity:1;stroke:#ea0000;stroke-width:1;stroke-miterlimit:4;stroke-opacity:1;stroke-dasharray:none"
       id="path5419"
       sodipodi:cx="345.47217"
       sodipodi:cy="288.87302"
       sodipodi:rx="262.63968"
       sodipodi:ry="262.63965"
       d="m 608.11185,288.87302 c 0,145.05187 -117.58779,262.63964 -262.63968,262.63964 -145.05189,0 -262.639681,-117.58777 -262.639681,-262.63964 0,-145.05188 117.587791,-262.639652 262.639681,-262.639652 145.05189,0 262.63968,117.587772 262.63968,262.639652 z"
       transform="translate(-49.497474,465.49416)" />
    <g
       clip-path="url(#clipPath)"
       id="g5421">
      <g
         id="g5423">
        <path
           sodipodi:type="arc"
           style="fill:none;stroke:#ffffff;stroke-opacity:1;stroke-width:10;filter:url(#filter);"
           id="path5425"
           sodipodi:cx="345.47217"
           sodipodi:cy="288.87302"
           sodipodi:rx="262.63968"
           sodipodi:ry="262.63965"
           d="m 608.11185,288.87302 c 0,145.05187 -117.58779,262.63964 -262.63968,262.63964 -145.05189,0 -262.639681,-117.58777 -262.639681,-262.63964 0,-145.05188 117.587791,-262.639652 262.639681,-262.639652 145.05189,0 262.63968,117.587772 262.63968,262.639652 z"
           transform="translate(-49.497474,465.49416)" />
        <path
           sodipodi:type="arc"
           style="fill:none;stroke:#000000;stroke-opacity:1;stroke-width:10;filter:url(#filter);"
           id="path5427"
           sodipodi:cx="345.47217"
           sodipodi:cy="288.87302"
           sodipodi:rx="262.63968"
           sodipodi:ry="262.63965"
           d="m 608.11185,288.87302 c 0,145.05187 -117.58779,262.63964 -262.63968,262.63964 -145.05189,0 -262.639681,-117.58777 -262.639681,-262.63964 0,-145.05188 117.587791,-262.639652 262.639681,-262.639652 145.05189,0 262.63968,117.587772 262.63968,262.639652 z"
           transform="translate(-49.497474,465.49416)" />
      </g>
    </g>
    <g
       id="g2527"
       transform="matrix(2.4594199,0,0,2.6022943,-232.88363,602.78633)">
      <path
         inkscape:connector-curvature="0"
         id="path3281"
         sodipodi:nodetypes="ccsccccsccc"
         style="fill:url(#linearGradient2550);fill-rule:evenodd;stroke:#000000;stroke-width:1.773"
         d="m 215.12,50.294 c 0.31,-1.979 2.21,-34.431 2.21,-34.431 0,0 1.17,-28.624 -25.49,-21.766 -22.26,5.7242 -24.85,27.307 -24.85,27.307 l -7.42,39.971 c -1.25,1.786 9.65,6.694 10.72,-2.77 l 4.98,-34.431 c 0,0 0.97,-13.455 15.26,-16.622 15.9,-3.525 13.91,12.269 13.91,12.269 l -1.8,29.286 12.48,1.187 z" />
      <g
         id="g3823"
         transform="matrix(-1,0,-0.12225,1,387.26,-15)">
        <path
           inkscape:connector-curvature="0"
           id="path3297"
           sodipodi:nodetypes="cc"
           style="fill:none;stroke:url(#radialGradient2552);stroke-width:1.41279995;stroke-linecap:round"
           d="M 176.39,43.248 C 174.61,9.984 198.81,22.706 198.81,22.706" />
        <path
           inkscape:connector-curvature="0"
           id="path3305"
           sodipodi:nodetypes="cc"
           style="fill:none;stroke:url(#radialGradient2554);stroke-width:7.7013998;stroke-linecap:round"
           d="m 170.08,28.039 c 0,0 2.59,-16.441 17.35,-16.721" />
      </g>
      <path
         inkscape:connector-curvature="0"
         id="path3285"
         style="fill:url(#linearGradient2556);fill-rule:evenodd;stroke:#000000;stroke-width:1.57910001"
         d="m 187.23,114.51 6.16,-61.006 12.31,-8.395 55.97,14.552 6.15,53.169 -9.51,8.4 -71.08,-6.72 z" />
      <path
         inkscape:connector-curvature="0"
         id="path3289"
         sodipodi:nodetypes="ccccc"
         style="fill:url(#linearGradient2558);fill-rule:evenodd"
         d="m 189.72,112.85 5.6,-57.926 10.35,-6.996 -1.96,54.292 -13.99,10.63 z" />
      <path
         inkscape:connector-curvature="0"
         id="path3293"
         sodipodi:nodetypes="ccccc"
         style="fill:url(#linearGradient2560);fill-rule:evenodd"
         d="m 189.44,112.99 14.27,-10.78 61.45,9.92 -7.83,7.14 -67.89,-6.28 z" />
      <path
         inkscape:connector-curvature="0"
         id="path3309"
         style="fill:none;stroke:url(#radialGradient2564);stroke-width:0.85878998"
         d="m 262.33,78.948 3.76,32.652 -50.46,-8.12" />
      <path
         inkscape:connector-curvature="0"
         id="path3313"
         sodipodi:nodetypes="ccccc"
         style="fill:url(#linearGradient2566);fill-rule:evenodd"
         d="m 206.73,48.277 -1.79,44.324 c 18.21,-16.226 49.08,4.353 56.6,-14.445 l -1.78,-16.82 -53.03,-13.059 z" />
      <g
         id="g3562"
         transform="matrix(0.27703,0,0,0.27703,-24.791,-21.239)">
        <path
           inkscape:connector-curvature="0"
           id="path3542"
           style="fill:#000000"
           d="m 941.62,332.26 c -7.6,0.19 -14.02,7.9 -14.66,18.06 -0.61,9.8 4.35,18.51 11.41,20.75 v 40.75 h 7.06 V 398.7 h -4.53 v -11.63 h 4.03 v -15.84 c 6.36,-1.72 11.38,-8.74 11.94,-17.66 0.68,-10.83 -5.47,-20.36 -13.72,-21.25 -0.51,-0.05 -1.02,-0.07 -1.53,-0.06 z" />
        <path
           inkscape:connector-curvature="0"
           id="path3540"
           style="fill:url(#linearGradient2568)"
           d="m 941.62,332.25 c -2.33,0.06 -4.58,0.85 -6.56,2.19 0.17,-0.01 0.34,-0.03 0.5,-0.03 0.51,-0.02 1.02,0 1.53,0.06 8.26,0.89 14.4,10.41 13.72,21.25 -0.56,8.92 -5.58,15.94 -11.93,17.66 v 15.84 h -0.5 v 11.62 h 1 v 10.97 h 6.06 v -13.12 h -4.53 v -11.63 h 4.03 v -15.84 c 6.36,-1.72 11.38,-8.74 11.94,-17.66 0.68,-10.83 -5.47,-20.35 -13.72,-21.25 -0.52,-0.05 -1.03,-0.07 -1.54,-0.06 z" />
      </g>
      <path
         inkscape:connector-curvature="0"
         id="path3568"
         sodipodi:nodetypes="cccc"
         style="fill:none;stroke:#ffffff;stroke-width:0.55405998;stroke-linecap:round"
         d="m 238.68,71.873 c 1.83,1.88 2.77,7.817 -1.68,9.795 v 4.354 l -0.91,0.049" />
      <path
         inkscape:connector-curvature="0"
         id="path3570"
         style="fill:none;stroke:#ffffff;stroke-width:0.55405998;stroke-linecap:round"
         d="m 237.11,89.287 0.04,3.561 -1.88,-0.048" />
      <path
         inkscape:connector-curvature="0"
         id="path3572"
         style="fill:none;stroke:url(#radialGradient2570);stroke-width:2.43779993;stroke-linecap:round"
         d="M 193.57,54.312 205.88,46.1 261.24,60.495" />
      <path
         id="path3849"
         sodipodi:rx="2.6785715"
         sodipodi:ry="0.53571427"
         style="fill:#000000;stroke:#000000;stroke-width:8.80000019;stroke-linecap:round;stroke-linejoin:round"
         sodipodi:type="arc"
         d="m 165.35715,61.571426 c 0,0.295867 -1.19924,0.535715 -2.67858,0.535715 -1.47933,0 -2.67857,-0.239848 -2.67857,-0.535715 0,-0.295866 1.19924,-0.535714 2.67857,-0.535714 1.47934,0 2.67858,0.239848 2.67858,0.535714 z"
         transform="matrix(0.79093,0,0,0.45467,36.332,32.773)"
         sodipodi:cy="61.571426"
         sodipodi:cx="162.67857" />
    </g>
    <path
       style="fill:#e60000;fill-opacity:1;stroke:#ea0000;stroke-width:1.01015258;stroke-miterlimit:4;stroke-opacity:1;stroke-dasharray:none"
       d=""
       id="path10307"
       inkscape:connector-curvature="0"
       transform="translate(0,452.36218)" />
    <path
       style="fill:#e60000;fill-opacity:1;stroke:#ea0000;stroke-width:1.01015258;stroke-miterlimit:4;stroke-opacity:1;stroke-dasharray:none"
       d=""
       id="path10309"
       inkscape:connector-curvature="0"
       transform="translate(0,452.36218)" />
  </g>
</svg>
